<?xml version="1.0" encoding="UTF-8" standalone="no"?>
<svg
   xmlns:dc="http://purl.org/dc/elements/1.1/"
   xmlns:cc="http://creativecommons.org/ns#"
   xmlns:rdf="http://www.w3.org/1999/02/22-rdf-syntax-ns#"
   xmlns:svg="http://www.w3.org/2000/svg"
   xmlns="http://www.w3.org/2000/svg"
   xmlns:sodipodi="http://sodipodi.sourceforge.net/DTD/sodipodi-0.dtd"
   xmlns:inkscape="http://www.inkscape.org/namespaces/inkscape"
   inkscape:export-ydpi="600"
   inkscape:export-xdpi="600"
   inkscape:export-filename="C:\Users\k-shi\Desktop\iMG.png"
   width="163.52138mm"
   height="66.624023mm"
   viewBox="0 0 163.52138 66.624023"
   version="1.1"
   id="svg8"
   inkscape:version="1.0 (4035a4fb49, 2020-05-01)"
   sodipodi:docname="iMG.svg">
  <title
     id="title34">iMG</title>
  <defs
     id="defs2">
    <inkscape:path-effect
       effect="bspline"
       id="path-effect24"
       is_visible="true"
       lpeversion="1"
       weight="33.333333"
       steps="2"
       helper_size="0"
       apply_no_weight="true"
       apply_with_weight="true"
       only_selected="false" />
    <inkscape:path-effect
       effect="bspline"
       id="path-effect20"
       is_visible="true"
       lpeversion="1"
       weight="33.333333"
       steps="2"
       helper_size="0"
       apply_no_weight="true"
       apply_with_weight="true"
       only_selected="false" />
    <inkscape:path-effect
       effect="bspline"
       id="path-effect16"
       is_visible="true"
       lpeversion="1"
       weight="33.333333"
       steps="2"
       helper_size="0"
       apply_no_weight="true"
       apply_with_weight="true"
       only_selected="false" />
    <inkscape:path-effect
       effect="bspline"
       id="path-effect12"
       is_visible="true"
       lpeversion="1"
       weight="33.333333"
       steps="2"
       helper_size="0"
       apply_no_weight="true"
       apply_with_weight="true"
       only_selected="false" />
  </defs>
  <sodipodi:namedview
     id="base"
     pagecolor="#ffffff"
     bordercolor="#666666"
     borderopacity="1.0"
     inkscape:pageopacity="0.0"
     inkscape:pageshadow="2"
     inkscape:zoom="1.4"
     inkscape:cx="338.33564"
     inkscape:cy="182.89482"
     inkscape:document-units="mm"
     inkscape:current-layer="layer1"
     inkscape:document-rotation="0"
     showgrid="false"
     fit-margin-top="1"
     fit-margin-left="1"
     fit-margin-bottom="1"
     fit-margin-right="1"
     inkscape:pagecheckerboard="true"
     inkscape:window-width="1920"
     inkscape:window-height="986"
     inkscape:window-x="-11"
     inkscape:window-y="-11"
     inkscape:window-maximized="1" />
  <metadata
     id="metadata5">
    <rdf:RDF>
      <cc:Work
         rdf:about="">
        <dc:format>image/svg+xml</dc:format>
        <dc:type
           rdf:resource="http://purl.org/dc/dcmitype/StillImage" />
        <dc:title>iMG</dc:title>
        <dc:date>2021/05/31</dc:date>
        <dc:creator>
          <cc:Agent>
            <dc:title>Osumi Akari</dc:title>
          </cc:Agent>
        </dc:creator>
        <cc:license
           rdf:resource="http://creativecommons.org/publicdomain/zero/1.0/" />
      </cc:Work>
      <cc:License
         rdf:about="http://creativecommons.org/publicdomain/zero/1.0/">
        <cc:permits
           rdf:resource="http://creativecommons.org/ns#Reproduction" />
        <cc:permits
           rdf:resource="http://creativecommons.org/ns#Distribution" />
        <cc:permits
           rdf:resource="http://creativecommons.org/ns#DerivativeWorks" />
      </cc:License>
    </rdf:RDF>
  </metadata>
  <g
     inkscape:label="レイヤー 1"
     inkscape:groupmode="layer"
     id="layer1"
     transform="translate(-28.61953,-75.808083)">
    <path
       style="fill:none;stroke:#000000;stroke-width:0.264583px;stroke-linecap:butt;stroke-linejoin:miter;stroke-opacity:1"
       d="m 38.175726,79.375132 c -2.645966,3.023941 -2.645966,9.071559 -0.630008,10.961261 2.015957,1.889702 6.047622,-0.37811 8.705998,-3.439652 2.658375,-3.061542 3.893071,-6.765632 1.877304,-8.655591 -2.015768,-1.88996 -7.307328,-1.88996 -9.953294,1.133982 z"
       id="path10"
       inkscape:path-effect="#path-effect12"
       inkscape:original-d="m 35.52976,76.35119 c 2.65e-4,6.047883 2.65e-4,12.095501 0,18.142857 4.032092,-2.267638 8.063757,-4.53545 12.095239,-6.803572 1.5122,-3.779573 2.520106,-7.55926 3.779761,-11.339285 -5.291508,2.64e-4 -10.583068,2.64e-4 -15.875,0 z" />
    <path
       style="fill:none;stroke:#000000;stroke-width:0.264583px;stroke-linecap:butt;stroke-linejoin:miter;stroke-opacity:1"
       d="m 38.531331,97.820676 c -1.559065,1.870875 -3.875401,4.543574 -5.701767,9.265494 -1.826366,4.72192 -3.162686,11.49261 -3.073524,17.99628 0.08916,6.50368 1.60366,12.73985 5.189553,12.94077 3.585893,0.20092 9.332052,-5.7248 12.402946,-12.27302 3.070893,-6.54822 3.521746,-13.9422 2.140952,-19.3767 -1.380794,-5.4345 -4.587962,-8.998026 -6.592631,-10.245391 -2.00467,-1.247365 -2.806464,-0.178308 -4.365529,1.692567 z"
       id="path14"
       inkscape:path-effect="#path-effect16"
       inkscape:original-d="m 39.288619,97.018836 c -2.31607,2.672961 -4.632407,5.345654 -6.949006,8.018084 -1.336111,6.77123 -2.672432,13.54192 -4.009043,20.31249 1.514821,6.23667 3.02932,12.47284 4.543581,18.70886 5.70213,-5.79069 11.403766,-11.75959 17.105251,-17.63979 0.445722,-7.21615 0.891162,-14.61046 1.336347,-21.91609 -3.207033,-3.56341 -6.414204,-7.12693 -9.621702,-10.690788 -0.801561,1.069364 -1.603354,2.138421 -2.405428,3.207234 z" />
    <path
       style="fill:none;stroke:#000000;stroke-width:0.264583px;stroke-linecap:butt;stroke-linejoin:miter;stroke-opacity:1"
       d="m 78.710828,130.42764 c -1.648158,4.36535 -2.895417,6.32533 -5.167129,7.75072 -2.271712,1.42539 -5.567969,2.31627 -8.374252,2.31635 -2.806283,8e-5 -5.122572,-0.89081 -5.88001,-3.1626 -0.757439,-2.27179 0.04435,-5.9244 1.380716,-9.48808 1.336363,-3.56368 3.207212,-7.03811 5.211756,-12.42808 2.004544,-5.38997 4.142657,-12.69519 6.236287,-19.287907 2.09363,-6.592715 4.142655,-12.472526 5.835493,-15.590777 1.692838,-3.11825 3.029158,-3.474602 5.211945,-3.474557 2.182787,4.5e-5 5.211779,0.356397 7.349815,7.751124 2.138036,7.394727 3.38527,21.826997 4.454478,29.488717 1.069209,7.66173 1.960088,8.55261 2.717356,8.99792 0.757268,0.44532 1.380886,0.44532 2.405407,0.31166 1.02451,-0.13365 2.44992,-0.40092 3.56346,-0.89091 1.11353,-0.48999 1.91533,-1.20269 4.63258,-8.46357 2.71725,-7.26087 7.34983,-21.069518 10.51312,-28.058752 3.16329,-6.989234 5.03327,-7.176232 6.19145,-6.953349 1.15817,0.222884 1.6927,0.846503 2.22714,2.71743 0.53445,1.870926 1.06898,4.989007 1.11349,14.343575 0.0445,9.354566 -0.40093,24.944976 -1.5591,33.542026 -1.15817,8.59705 -3.02902,10.20063 -4.85534,7.97349 -1.82633,-2.22714 -3.60809,-8.28513 -6.23631,-9.84434 -2.62822,-1.55921 -6.10265,1.3807 -8.99809,3.78614 -2.89544,2.40544 -5.21173,4.27629 -8.19615,3.69731 -2.984417,-0.57899 -6.637025,-3.60798 -9.087117,-7.83976 -2.450091,-4.23179 -3.697326,-9.66617 -5.345569,-8.99799 -1.648244,0.66817 -3.697268,7.43886 -5.345426,11.80421 z"
       id="path18"
       inkscape:path-effect="#path-effect20"
       inkscape:original-d="m 78.309972,132.83295 c -1.246995,1.96024 -2.494251,3.92022 -3.741775,5.87993 -3.296126,0.89118 -6.592384,1.78206 -9.888971,2.6727 -2.316118,-0.89065 -4.632407,-1.78153 -6.949009,-2.6727 0.80209,-3.65249 1.603883,-7.3051 2.405425,-10.95805 1.871189,-3.47431 3.742039,-6.94874 5.612662,-10.42351 2.138463,-7.30525 4.276577,-14.61047 6.414468,-21.916099 2.04937,-5.879783 4.098396,-11.759594 6.1472,-17.63979 1.336638,-0.356102 2.672958,-0.712454 4.00904,-1.069078 3.029382,0.356632 6.058374,0.712984 9.087165,1.069078 1.247548,14.433108 2.49478,28.865379 3.741775,43.297659 0.89118,0.89119 1.782061,1.78207 2.672693,2.6727 0.623906,2.6e-4 1.247524,2.6e-4 1.870888,0 1.425727,-0.26701 2.851137,-0.53428 4.276307,-0.80181 0.80209,-0.71247 1.60389,-1.42517 2.40543,-2.13816 4.63303,-13.80893 9.26561,-27.617582 13.89802,-41.42677 1.693,-0.177919 3.56386,-0.356095 5.34539,-0.534541 0.53481,0.623906 1.06934,1.247524 1.60361,1.870888 0.53482,3.118471 1.06935,6.236552 1.60362,9.354433 -0.44519,15.5913 -0.89063,31.18171 -1.33635,46.77217 -1.87066,1.60391 -3.74151,3.20749 -5.61266,4.81085 -1.78156,-6.05797 -3.56333,-12.11596 -5.34539,-18.17433 -3.47431,2.94029 -6.94874,5.88019 -10.42351,8.81989 -2.31612,1.87119 -4.63241,3.74204 -6.949008,5.61266 -3.65249,-3.02885 -7.3051,-6.05784 -10.958049,-9.08716 -1.247018,-5.43432 -2.494251,-10.8687 -3.741774,-16.30344 -2.048841,6.77123 -4.097867,13.54192 -6.147197,20.31248 z" />
    <path
       style="fill:none;stroke:#000000;stroke-width:0.264583px;stroke-linecap:butt;stroke-linejoin:miter;stroke-opacity:1"
       d="m 180.31811,86.105415 c -4.0981,-2.27168 -11.49256,-6.904353 -19.68905,-5.345309 -8.1965,1.559045 -17.1944,9.309704 -21.82708,19.377124 -4.63269,10.06741 -4.89996,22.45065 -3.19065,29.45136 1.7093,7.00071 5.32912,8.58989 13.88186,10.01529 8.55274,1.42539 22.00504,2.67263 28.9539,0.57907 6.94886,-2.09356 7.3943,-7.52793 6.99344,-12.42788 -0.40086,-4.89995 -1.64809,-9.26527 -4.32072,-12.42806 -2.67263,-3.16279 -6.77067,-5.12272 -10.86888,-5.88007 -4.09822,-0.75735 -8.19627,-0.31191 -10.29001,0.4455 -2.09374,0.7574 -2.18283,1.82646 -2.18281,3.02921 2e-5,1.20275 0.0891,2.53907 0.84653,3.42988 0.75743,0.89081 2.18284,1.33625 3.16266,1.20258 0.97982,-0.13367 1.51435,-0.84638 2.27166,-1.55914 0.75731,-0.71277 1.73728,-1.42547 3.38559,-0.84623 1.6483,0.57924 3.9646,2.45009 4.41528,5.2864 0.45068,2.8363 -0.98557,6.69621 -4.23725,8.7452 -3.25167,2.04899 -8.32969,2.31625 -12.07151,0.62367 -3.74182,-1.69259 -6.1472,-5.3452 -6.77094,-10.24525 -0.62374,-4.90005 0.5344,-11.04713 3.25172,-15.99176 2.71731,-4.944639 6.99354,-8.686334 12.01815,-9.463853 5.02462,-0.777519 11.01185,1.490372 15.59996,2.336643 4.58811,0.846272 7.88437,0.311743 9.5771,-0.759676 1.69273,-1.07142 1.78155,-2.670069 1.78156,-4.229141 1e-5,-1.559072 -0.0891,-3.073573 -0.93536,-3.608271 -0.84629,-0.534698 -2.44988,-0.08926 -3.65257,0.178025 -1.20269,0.267281 -2.00448,0.356369 -6.10258,-1.915312 z"
       id="path22"
       inkscape:path-effect="#path-effect24"
       inkscape:original-d="m 183.61416,88.466212 c -7.39419,-4.632407 -14.78865,-9.265079 -22.18337,-13.898015 -8.99799,7.751236 -17.99588,15.501898 -26.99422,23.252448 -0.26701,12.384005 -0.53427,24.767245 -0.80181,37.150465 3.65302,1.69301 7.30563,3.2075 10.95805,4.81085 13.4531,1.24755 26.9054,2.49478 40.3577,3.74178 0.44572,-5.43433 0.89116,-10.8687 1.33635,-16.30345 -1.24702,-4.36522 -2.49425,-8.73054 -3.74177,-13.0962 -4.09796,-1.95976 -8.196,-3.91969 -12.2944,-5.87993 -4.09795,0.44572 -8.196,0.89116 -12.2944,1.33634 -0.0888,1.06937 -0.17792,2.13842 -0.26727,3.20724 0.0894,1.33664 0.17844,2.67296 0.26727,4.00904 1.42573,0.44572 2.85114,0.89117 4.27631,1.33635 0.53482,-0.71247 1.06935,-1.42517 1.60362,-2.13816 0.98027,-0.71247 1.96024,-1.42517 2.93996,-2.13815 2.31665,1.87119 4.63294,3.74204 6.94901,5.61266 -1.33611,3.8312 -2.85061,7.66199 -4.27631,11.49259 -5.07796,0.26754 -10.15598,0.5348 -15.23436,0.8018 -2.40521,-3.65249 -4.81059,-7.3051 -7.21628,-10.95805 1.15846,-6.14705 2.3166,-12.29413 3.4745,-18.44159 4.27667,-3.741585 8.55289,-7.483285 12.82894,-11.225322 5.79122,2.138463 11.76012,4.454755 17.63979,6.681737 3.29665,-0.534283 6.59291,-1.068813 9.88897,-1.603615 0.17845,-1.603386 0.17844,-3.20697 0.26727,-4.810853 -0.0888,-1.514292 -0.17792,-3.028791 -0.26727,-4.543581 -1.60338,0.445722 -3.20697,0.891162 -4.81085,1.336347 -0.80156,0.08935 -1.60335,0.178443 -2.40543,0.267269 z" />
    <path
       transform="matrix(0.26458333,0,0,0.26458333,28.61953,75.808083)"
       id="path20"
       d="m 38.187802,56.62728 c -3.571695,-0.86452 -6.124103,-3.681799 -7.751586,-8.55599 -1.05576,-3.161923 -1.494122,-6.274957 -1.494152,-10.610734 -3e-5,-4.279882 0.341832,-7.020709 1.37561,-11.028748 1.487532,-5.767274 3.865676,-10.162164 7.375431,-13.630037 2.15456,-2.12885 3.859184,-3.3618169 6.394649,-4.6252964 4.475474,-2.230229 8.869665,-3.2238768 14.254677,-3.2233758 4.230989,3.929e-4 7.501363,0.5917739 10.555723,1.9087872 5.394554,2.3260849 7.956865,6.103384 7.96724,11.745118 0.01427,7.761481 -5.099847,17.500597 -13.69244,26.075301 -8.769278,8.751021 -18.65494,13.477187 -24.985152,11.944975 z"
       style="fill:#ffffff;stroke:#808080;stroke-width:0.178853" />
    <path
       transform="matrix(0.26458333,0,0,0.26458333,28.61953,75.808083)"
       id="path27"
       d="m 22.315496,234.34011 c -1.528224,-0.34445 -3.750487,-1.46384 -5.116671,-2.57734 -4.709339,-3.83833 -8.4667226,-12.62541 -10.5053616,-24.56801 -3.3383125,-19.55626 -2.0579735,-44.40337 3.5103916,-68.125 4.972634,-21.18378 12.177433,-36.4778 24.059048,-51.071433 2.346028,-2.881517 6.048111,-7.290157 7.122741,-8.482143 3.036653,-3.368273 5.482132,-4.574194 8.151991,-4.019934 1.405293,0.291738 4.114934,1.698584 6.081432,3.157481 2.138207,1.586283 7.29483,6.784715 9.269441,9.344596 10.854781,14.072113 16.160495,30.914203 16.174225,51.342333 0.01367,20.34057 -5.297123,40.35386 -15.352359,57.8541 -8.961943,15.59745 -21.788703,29.45359 -32.213457,34.79865 -4.25232,2.18029 -8.222716,3.01357 -11.181421,2.3467 z"
       style="fill:#ffffff;stroke:#808080;stroke-width:0.178853" />
    <path
       transform="matrix(0.26458333,0,0,0.26458333,28.61953,75.808083)"
       id="path31"
       d="m 134.35677,243.60541 c -9.8228,-0.85251 -15.91771,-4.96642 -18.0596,-12.18978 -0.88119,-2.97172 -0.89323,-10.49406 -0.0244,-15.21899 1.94293,-10.56571 4.81533,-18.55604 14.79859,-41.16613 10.15798,-23.0058 13.40813,-32.17049 28.23905,-79.627847 20.67623,-66.161745 28.3426,-84.131599 37.72489,-88.4266435 4.00205,-1.8320663 12.28695,-2.0891851 16.96428,-0.5264795 9.47377,3.1652066 15.94818,13.734132 20.90873,34.131695 3.76212,15.469646 6.53385,33.523721 11.40464,74.285715 4.61793,38.64582 6.33712,49.29879 9.28948,57.56212 1.89849,5.31369 3.973,7.68805 7.61489,8.71554 4.51877,1.27488 18.1608,-1.35011 22.72378,-4.37251 2.25147,-1.49131 4.3957,-4.62647 7.32504,-10.71022 4.0156,-8.33974 6.96273,-16.03722 19.12238,-49.94493 10.89598,-30.383894 14.31162,-39.717901 19.01555,-51.964287 14.03654,-36.543263 22.59864,-50.535714 30.9232,-50.535714 3.96807,0 6.11335,1.387203 7.88985,5.101824 4.70652,9.841263 6.18737,28.982337 5.80832,75.076747 -0.42677,51.89652 -2.95181,95.05793 -6.8946,117.8517 -2.95323,17.073 -7.02687,26.06636 -11.50374,25.39673 -3.23762,-0.48427 -5.76504,-3.99973 -12.60604,-17.53414 -6.64905,-13.15463 -8.38168,-16.03564 -11.88614,-19.76423 -3.1629,-3.36518 -6.07057,-4.73467 -10.05911,-4.73777 -3.22092,-0.002 -5.31305,0.50875 -8.95405,2.18813 -5.0703,2.33863 -9.79973,5.72875 -21.90789,15.70386 -10.98434,9.04926 -17.07863,12.14572 -23.90462,12.14572 -4.08048,0 -6.97005,-0.76035 -11.6311,-3.06057 -8.65332,-4.27041 -17.51335,-12.69585 -24.19777,-23.01086 -3.003,-4.63404 -5.87673,-10.32569 -10.45869,-20.71428 -4.65459,-10.55325 -6.40933,-13.83518 -8.44967,-15.80358 -1.18348,-1.14176 -1.62422,-1.33928 -2.98831,-1.33928 -4.5552,0 -8.1418,6.90488 -18.36553,35.35714 -7.48702,20.83609 -10.80454,27.54683 -16.57265,33.52343 -7.14495,7.40321 -19.65556,12.47074 -33.61023,13.61412 -2.35715,0.19313 -4.36607,0.33002 -4.46429,0.30419 -0.0982,-0.0258 -1.54464,-0.16551 -3.21428,-0.31042 z"
       style="fill:#ffffff;stroke:#808080;stroke-width:0.357705" />
    <path
       transform="matrix(0.26458333,0,0,0.26458333,28.61953,75.808083)"
       id="path33"
       d="m 512.71172,246.51007 c -0.98215,-0.0682 -4.51786,-0.2954 -7.85715,-0.50483 -23.54626,-1.47673 -53.93519,-5.87406 -68.21428,-9.87071 -19.43718,-5.44037 -28.18808,-15.4571 -32.47731,-37.17518 -4.28579,-21.70067 -3.49299,-49.54087 2.11647,-74.32218 5.09393,-22.50381 13.58456,-41.337843 26.36191,-58.476347 18.94827,-25.415679 43.78839,-42.650269 67.74893,-47.005602 5.49654,-0.999112 16.21121,-1.091195 21.9789,-0.188888 14.36548,2.247357 26.51015,7.035162 47.25651,18.629987 11.67754,6.526397 17.45756,9.099795 21.68192,9.65329 1.35358,0.177353 3.14833,-0.03928 7.11519,-0.858848 2.91776,-0.602816 6.3621,-1.095428 7.6541,-1.094693 5.35206,0.003 6.8897,2.939018 6.91992,13.21295 0.017,5.78764 -0.36764,8.370161 -1.61674,10.8543 -3.30981,6.582386 -13.16312,9.953322 -27.41837,9.38015 -8.4047,-0.337932 -12.42583,-1.053907 -30.21757,-5.380346 -17.5295,-4.262664 -24.32763,-5.347018 -33.53243,-5.348671 -9.16922,-0.0018 -15.83475,1.525964 -23.57143,5.402125 -6.43637,3.224689 -11.21966,6.764892 -16.96861,12.558775 -10.85891,10.943792 -18.90497,25.799418 -23.32712,43.069378 -7.73104,30.19226 -2.24114,57.02857 14.35641,70.17858 7.59944,6.02092 16.2935,9.06637 27.18932,9.52416 19.39182,0.81474 34.16375,-7.01282 41.073,-21.76436 2.14588,-4.58156 2.89428,-7.66008 3.11278,-12.80442 0.23338,-5.49467 -0.36956,-8.67751 -2.41274,-12.73641 -3.46977,-6.89296 -10.267,-12.49355 -16.82162,-13.86022 -4.60763,-0.96072 -7.59264,0.23262 -12.80856,5.12057 -4.13269,3.87281 -5.44414,4.50644 -8.90729,4.30355 -5.22649,-0.3062 -9.37544,-3.15793 -11.08969,-7.62237 -0.65892,-1.71601 -0.84957,-3.06993 -0.99101,-7.03754 -0.19805,-5.55551 0.13472,-7.35834 1.71128,-9.27098 2.07303,-2.51494 7.72544,-4.67231 15.43215,-5.89003 6.25953,-0.98906 20.24274,-0.87316 26.68002,0.22113 14.60818,2.48327 27.00157,7.94624 36.72505,16.18829 13.59195,11.52113 20.85259,29.36145 22.60014,55.5314 1.63991,24.55807 -6.6352,37.82965 -27.33923,43.84648 -3.53668,1.0278 -11.13967,2.3921 -16.96428,3.04413 -3.47473,0.38897 -31.10364,0.77647 -35.17857,0.49338 z"
       style="fill:#ffffff;stroke:#808080;stroke-width:0.357705" />
  </g>
</svg>
